<svg xmlns="http://www.w3.org/2000/svg" width="24.75" height="33" viewBox="0 0 24.75 33">
  <g id="Group_15" data-name="Group 15" transform="translate(-6371 -4289)">
    <path id="map-marker-solid" d="M11.1,32.334C1.738,18.758,0,17.365,0,12.375a12.375,12.375,0,1,1,24.75,0c0,4.99-1.738,6.383-11.1,19.959a1.548,1.548,0,0,1-2.544,0Z" transform="translate(6371 4289)" fill="#00bfa6"/>
    <g id="camping-tent" transform="translate(6376.796 4293.488)">
      <g id="Group_2" data-name="Group 2" transform="translate(0 0)">
        <path id="Path_145" data-name="Path 145" d="M237.6,97.492a.734.734,0,0,0-.509-.245H232.57c-.16,0-.166.116-.086.25l7.988,13.37a.36.36,0,0,0,.421.1l4.357-1.327a.23.23,0,0,0,.124-.351Z" transform="translate(-230.255 -97.247)" fill="#fff"/>
        <path id="Path_146" data-name="Path 146" d="M2.834,117.413l2.811-7.93v7.672a.578.578,0,0,0,.668.647H11.79c.117,0,.164-.249.107-.383L6.237,104.161c-.058-.134-.152-.134-.209,0L4.611,107.45a1.077,1.077,0,0,1-.29.379C2.888,108.88.954,110.284.1,110.78c-.128.075-.121.289-.021.418a12.3,12.3,0,0,1,.969,1.488,8.8,8.8,0,0,1,.564,1.271.786.786,0,0,1-.017.5L.375,117.419c-.057.134-.009.383.107.383H2.527C2.643,117.8,2.781,117.551,2.834,117.413ZM1.2,111.3a.122.122,0,0,1,.016-.186c.6-.417,3.457-2.4,4.25-3.038.06-.048.082-.023.05.06l-2.7,7.025c-.032.083-.068.076-.084-.015A8.967,8.967,0,0,0,1.2,111.3Z" transform="translate(-0.001 -103.79)" fill="#fff"/>
      </g>
    </g>
  </g>
</svg>